<svg width="309" height="78" viewBox="0 0 309 78" fill="none" xmlns="http://www.w3.org/2000/svg">
<path d="M282 52.7278L273.564 42.7788C273.447 42.6294 273.331 42.4791 273.216 42.3278C271.775 40.4296 270.997 38.111 271 35.7278C271 32.8104 272.159 30.0125 274.222 27.9496C276.285 25.8867 279.083 24.7278 282 24.7278C284.917 24.7278 287.715 25.8867 289.778 27.9496C291.841 30.0125 293 32.8104 293 35.7278C293.004 38.1099 292.225 40.4274 290.785 42.3248L290.784 42.3278C290.784 42.3278 290.484 42.7218 290.439 42.7748L282 52.7278ZM274.812 41.1228C274.814 41.1228 275.046 41.4308 275.099 41.4968L282 49.6358L288.91 41.4858C288.954 41.4308 289.188 41.1208 289.189 41.1198C290.366 39.5689 291.002 37.6748 291 35.7278C291 33.3408 290.052 31.0516 288.364 29.3638C286.676 27.676 284.387 26.7278 282 26.7278C279.613 26.7278 277.324 27.676 275.636 29.3638C273.948 31.0516 273 33.3408 273 35.7278C272.998 37.676 273.635 39.5712 274.813 41.1228H274.812Z" fill="black"/>
<path d="M287 40.7278H285V32.7278H279V40.7278H277V32.7278C277.001 32.1975 277.211 31.6891 277.586 31.3142C277.961 30.9392 278.47 30.7283 279 30.7278H285C285.53 30.7283 286.039 30.9392 286.414 31.3142C286.789 31.6891 286.999 32.1975 287 32.7278V40.7278Z" fill="black"/>
<path d="M281 38.7278H283V40.7278H281V38.7278ZM281 34.7278H283V36.7278H281V34.7278Z" fill="black"/>
<path d="M166.5 27.5611H140.5C138.712 27.5611 137.266 28.8736 137.266 30.4778L137.25 47.9778C137.25 49.5819 138.712 50.8944 140.5 50.8944H166.5C168.288 50.8944 169.75 49.5819 169.75 47.9778V30.4778C169.75 28.8736 168.288 27.5611 166.5 27.5611ZM140.5 34.8528H157.562V39.9569H140.5V34.8528ZM140.5 42.8736H157.562V47.9778H140.5V42.8736ZM166.5 47.9778H160.812V34.8528H166.5V47.9778Z" fill="black"/>
<path d="M18.375 27.625C18.375 27.3929 18.4672 27.1704 18.6313 27.0063C18.7954 26.8422 19.0179 26.75 19.25 26.75H22.75C22.9821 26.75 23.2046 26.8422 23.3687 27.0063C23.5328 27.1704 23.625 27.3929 23.625 27.625C23.625 27.8571 23.5328 28.0796 23.3687 28.2437C23.2046 28.4078 22.9821 28.5 22.75 28.5H19.25C19.0179 28.5 18.7954 28.4078 18.6313 28.2437C18.4672 28.0796 18.375 27.8571 18.375 27.625Z" fill="black"/>
<path fill-rule="evenodd" clip-rule="evenodd" d="M29.1935 34.205C28.8759 34.4544 28.4638 34.6539 27.9668 34.8158C28.0618 35.7878 27.9524 36.7691 27.6456 37.6963C27.3388 38.6236 26.8413 39.4764 26.1851 40.1999C25.5289 40.9233 24.7286 41.5015 23.8356 41.8972C22.9426 42.2928 21.9767 42.4972 21 42.4972C20.0233 42.4972 19.0574 42.2928 18.1644 41.8972C17.2714 41.5015 16.4711 40.9233 15.8149 40.1999C15.1587 39.4764 14.6612 38.6236 14.3544 37.6963C14.0476 36.7691 13.9382 35.7878 14.0332 34.8158C13.5362 34.6539 13.1241 34.4544 12.8074 34.205C12.3961 33.8813 12.1205 33.449 12.0881 32.9293C12.0575 32.4471 12.2482 32.0376 12.439 31.7489C12.6273 31.4754 12.8509 31.2279 13.104 31.013C13.2265 30.9054 13.3472 30.81 13.4592 30.7269C13.426 30.5475 13.3892 30.3305 13.3525 30.0794C13.1975 28.9764 13.1215 27.8638 13.125 26.75C13.125 26.4752 13.2422 26.2705 13.2965 26.1839C13.3647 26.0745 13.4452 25.9809 13.5187 25.9056C13.6649 25.7525 13.8539 25.5967 14.0612 25.4471C14.4812 25.1426 15.0587 24.8005 15.7447 24.4803C17.1124 23.8415 18.991 23.25 21 23.25C23.0099 23.25 24.8876 23.8424 26.2553 24.4803C26.845 24.75 27.4086 25.0737 27.9388 25.4471C28.1461 25.5967 28.3351 25.7534 28.4812 25.9056C28.5547 25.9809 28.6353 26.0745 28.7035 26.1839C28.7578 26.2705 28.875 26.4752 28.875 26.75C28.875 28.1517 28.7613 29.2875 28.6475 30.0794C28.6108 30.3305 28.574 30.5475 28.5408 30.7269C28.6528 30.81 28.7744 30.9054 28.8969 31.013C29.1156 31.2046 29.3659 31.454 29.561 31.7489C29.7526 32.0376 29.9425 32.4471 29.9128 32.9301C29.8804 33.449 29.6047 33.8813 29.1935 34.205V34.205ZM14.8768 27.0282C14.8899 28.2077 14.9879 29.1615 15.085 29.8282C15.1077 29.9857 15.1305 30.1257 15.1515 30.25H26.8485C26.8704 30.1257 26.8923 29.9849 26.915 29.8282C27.0113 29.1615 27.1101 28.2077 27.1232 27.0282C27.0551 26.9707 26.9848 26.9158 26.9124 26.8638C26.5965 26.6354 26.117 26.3475 25.515 26.0666C24.3049 25.5014 22.6835 25 21 25C19.3165 25 17.6951 25.5014 16.485 26.0666C15.883 26.3475 15.4035 26.6354 15.0885 26.8629C15.0157 26.9155 14.9451 26.9709 14.8768 27.0291V27.0282ZM14.6895 32L14.6869 32.0018C14.5359 32.1024 14.3912 32.2123 14.2538 32.3308C14.098 32.4673 13.9737 32.6003 13.8985 32.7158C13.8806 32.7417 13.8645 32.7689 13.8504 32.7971C13.8628 32.8084 13.8756 32.8192 13.8889 32.8295C14.0201 32.9327 14.3019 33.0841 14.8514 33.2337C14.9599 33.2635 15.0762 33.2915 15.2005 33.3195L15.2084 33.3213C15.6476 33.4184 16.1884 33.505 16.8472 33.5733C17.7809 33.6704 18.956 33.7342 20.4242 33.7482L21 33.75C23.8236 33.75 25.6498 33.5741 26.7925 33.3213L26.7995 33.3195C26.9246 33.2915 27.041 33.2635 27.1495 33.2337C27.6981 33.085 27.9807 32.9327 28.1111 32.8295C28.1244 32.8192 28.1372 32.8084 28.1496 32.7971C28.1358 32.7689 28.12 32.7418 28.1024 32.7158C28.0006 32.5727 27.8809 32.4433 27.7462 32.3308C27.6091 32.2123 27.4647 32.1024 27.314 32.0018L27.3105 32H14.6895ZM20.762 35.5C23.0738 35.5 24.8658 35.3775 26.2395 35.164C26.2847 35.8774 26.1837 36.5925 25.9427 37.2655C25.7017 37.9385 25.3258 38.5552 24.8381 39.0778C24.3504 39.6003 23.761 40.0178 23.1063 40.3046C22.4515 40.5914 21.745 40.7415 21.0302 40.7456C20.3154 40.7497 19.6073 40.6078 18.9492 40.3286C18.2912 40.0493 17.6971 39.6387 17.2034 39.1217C16.7097 38.6048 16.3267 37.9925 16.078 37.3223C15.8293 36.6521 15.7201 35.9382 15.757 35.2244C17.0371 35.4011 18.6778 35.5 20.762 35.5V35.5ZM14.0682 52.0174C14.0227 52.3429 13.9998 52.6713 14 53V53.875C14.0001 54.0674 13.9368 54.2544 13.8199 54.4071C13.703 54.5599 13.5391 54.6699 13.3534 54.7201C13.1677 54.7703 12.9706 54.7579 12.7927 54.6849C12.6148 54.6118 12.4658 54.4822 12.369 54.316C11.7793 54.6359 11.0892 54.717 10.4414 54.5426L8.75087 54.0894C8.07866 53.9089 7.50563 53.4689 7.15777 52.8661C6.80991 52.2632 6.71571 51.5469 6.89587 50.8746L7.57487 48.3389C7.75512 47.6665 8.19506 47.0933 8.79793 46.7452C9.4008 46.3972 10.1172 46.3029 10.7896 46.483L12.4801 46.9354C13.0681 47.0929 13.5564 47.4385 13.8959 47.89C14.7059 46.7625 15.7729 45.8442 17.0084 45.2112C18.244 44.5782 19.6126 44.2487 21.0009 44.25C22.3884 44.2491 23.7562 44.5786 24.9911 45.2113C26.226 45.8439 27.2925 46.7616 28.1024 47.8883C28.4541 47.4218 28.9519 47.0866 29.5164 46.9362L31.2069 46.4839C31.8792 46.3037 32.5955 46.3979 33.1983 46.7458C33.8012 47.0936 34.2412 47.6667 34.4216 48.3389L35.1015 50.8755C35.1907 51.2085 35.2134 51.5558 35.1683 51.8976C35.1233 52.2394 35.0114 52.5689 34.839 52.8674C34.6665 53.166 34.437 53.4276 34.1635 53.6374C33.8899 53.8472 33.5778 54.0011 33.2448 54.0902L31.5551 54.5426C30.9084 54.7171 30.2195 54.637 29.6301 54.3186C29.533 54.4846 29.3839 54.6139 29.2058 54.6866C29.0278 54.7593 28.8308 54.7714 28.6452 54.7209C28.4597 54.6704 28.2959 54.5602 28.1793 54.4073C28.0627 54.2544 27.9997 54.0673 28 53.875V53C28.0002 52.6713 27.9773 52.3429 27.9318 52.0174L23.3783 53.238C23.1669 53.6904 22.8309 54.0732 22.4096 54.3413C21.9884 54.6095 21.4994 54.7519 21 54.7519C20.5006 54.7519 20.0116 54.6095 19.5904 54.3413C19.1691 54.0732 18.8331 53.6904 18.6217 53.238L14.0682 52.0174V52.0174ZM18.48 51.3874C18.5974 50.9885 18.8077 50.6231 19.0937 50.3212C19.3796 50.0193 19.7331 49.7894 20.125 49.6505V46.0543C18.8977 46.2094 17.7333 46.6867 16.7502 47.4376C15.7671 48.1885 15.0002 49.1863 14.5276 50.3295L18.48 51.3883V51.3874ZM27.4724 50.3286C26.9996 49.1855 26.2328 48.188 25.2496 47.4372C24.2665 46.6865 23.1022 46.2093 21.875 46.0543V49.6496C22.666 49.9296 23.2837 50.5771 23.52 51.3883L27.4724 50.3295V50.3286ZM29.351 49.6986C29.3212 49.5876 29.3136 49.4718 29.3286 49.3579C29.3436 49.244 29.3808 49.1341 29.4383 49.0345C29.4957 48.935 29.5722 48.8478 29.6634 48.7778C29.7546 48.7078 29.8586 48.6565 29.9696 48.6267L31.6601 48.1735C31.8842 48.1136 32.1228 48.1452 32.3237 48.2612C32.5245 48.3772 32.671 48.5681 32.7311 48.7921L33.411 51.3279C33.4408 51.4389 33.4484 51.5547 33.4334 51.6686C33.4184 51.7825 33.3812 51.8924 33.3237 51.992C33.2663 52.0915 33.1898 52.1787 33.0986 52.2487C33.0074 52.3187 32.9034 52.37 32.7924 52.3997L31.1019 52.853C30.9908 52.8828 30.875 52.8903 30.761 52.8753C30.647 52.8603 30.5371 52.8229 30.4375 52.7654C30.338 52.7079 30.2508 52.6313 30.1808 52.54C30.1109 52.4487 30.0597 52.3446 30.03 52.2335L29.351 49.6986V49.6986ZM10.3372 48.1735C10.2262 48.1436 10.1103 48.1359 9.99628 48.1508C9.88224 48.1657 9.77226 48.203 9.67262 48.2604C9.57299 48.3179 9.48566 48.3944 9.41563 48.4856C9.3456 48.5769 9.29424 48.681 9.2645 48.7921L8.5855 51.327C8.55572 51.438 8.54811 51.5538 8.56308 51.6677C8.57806 51.7817 8.61534 51.8915 8.67278 51.9911C8.73023 52.0906 8.80672 52.1779 8.89789 52.2478C8.98906 52.3178 9.09312 52.3691 9.20412 52.3989L10.8946 52.8521C11.0056 52.8819 11.1214 52.8895 11.2353 52.8745C11.3493 52.8596 11.4592 52.8223 11.5587 52.7648C11.6582 52.7074 11.7455 52.6309 11.8155 52.5397C11.8854 52.4486 11.9368 52.3445 11.9665 52.2335L12.6455 49.6978C12.6754 49.5867 12.6831 49.4708 12.6682 49.3568C12.6533 49.2427 12.616 49.1328 12.5586 49.0331C12.5011 48.9335 12.4246 48.8462 12.3334 48.7761C12.2421 48.7061 12.138 48.6547 12.0269 48.625L10.3364 48.1726L10.3372 48.1735ZM21.875 52.125C21.875 52.3571 21.7828 52.5796 21.6187 52.7437C21.4546 52.9078 21.2321 53 21 53C20.7679 53 20.5454 52.9078 20.3813 52.7437C20.2172 52.5796 20.125 52.3571 20.125 52.125C20.125 51.8929 20.2172 51.6704 20.3813 51.5063C20.5454 51.3422 20.7679 51.25 21 51.25C21.2321 51.25 21.4546 51.3422 21.6187 51.5063C21.7828 51.6704 21.875 51.8929 21.875 52.125Z" fill="black"/>
<path d="M13.9336 62.4688L15.7148 66.3594L17.4961 62.4688H19.4121L16.6055 67.8945V71H14.8242V67.8945L12.0117 62.4688H13.9336ZM19.4297 67.8945V67.7715C19.4297 67.3066 19.4961 66.8789 19.6289 66.4883C19.7617 66.0938 19.9551 65.752 20.209 65.4629C20.4629 65.1738 20.7754 64.9492 21.1465 64.7891C21.5176 64.625 21.9434 64.543 22.4238 64.543C22.9043 64.543 23.332 64.625 23.707 64.7891C24.082 64.9492 24.3965 65.1738 24.6504 65.4629C24.9082 65.752 25.1035 66.0938 25.2363 66.4883C25.3691 66.8789 25.4355 67.3066 25.4355 67.7715V67.8945C25.4355 68.3555 25.3691 68.7832 25.2363 69.1777C25.1035 69.5684 24.9082 69.9102 24.6504 70.2031C24.3965 70.4922 24.084 70.7168 23.7129 70.877C23.3418 71.0371 22.916 71.1172 22.4355 71.1172C21.9551 71.1172 21.5273 71.0371 21.1523 70.877C20.7812 70.7168 20.4668 70.4922 20.209 70.2031C19.9551 69.9102 19.7617 69.5684 19.6289 69.1777C19.4961 68.7832 19.4297 68.3555 19.4297 67.8945ZM21.1172 67.7715V67.8945C21.1172 68.1602 21.1406 68.4082 21.1875 68.6387C21.2344 68.8691 21.3086 69.0723 21.4102 69.248C21.5156 69.4199 21.6523 69.5547 21.8203 69.6523C21.9883 69.75 22.1934 69.7988 22.4355 69.7988C22.6699 69.7988 22.8711 69.75 23.0391 69.6523C23.207 69.5547 23.3418 69.4199 23.4434 69.248C23.5449 69.0723 23.6191 68.8691 23.666 68.6387C23.7168 68.4082 23.7422 68.1602 23.7422 67.8945V67.7715C23.7422 67.5137 23.7168 67.2715 23.666 67.0449C23.6191 66.8145 23.543 66.6113 23.4375 66.4355C23.3359 66.2559 23.2012 66.1152 23.0332 66.0137C22.8652 65.9121 22.6621 65.8613 22.4238 65.8613C22.1855 65.8613 21.9824 65.9121 21.8145 66.0137C21.6504 66.1152 21.5156 66.2559 21.4102 66.4355C21.3086 66.6113 21.2344 66.8145 21.1875 67.0449C21.1406 67.2715 21.1172 67.5137 21.1172 67.7715ZM30.2227 69.4824V64.6602H31.9102V71H30.3223L30.2227 69.4824ZM30.4102 68.1816L30.9082 68.1699C30.9082 68.5918 30.8594 68.9844 30.7617 69.3477C30.6641 69.707 30.5176 70.0195 30.3223 70.2852C30.127 70.5469 29.8809 70.752 29.584 70.9004C29.2871 71.0449 28.9375 71.1172 28.5352 71.1172C28.2266 71.1172 27.9414 71.0742 27.6797 70.9883C27.4219 70.8984 27.1992 70.7598 27.0117 70.5723C26.8281 70.3809 26.6836 70.1367 26.5781 69.8398C26.4766 69.5391 26.4258 69.1777 26.4258 68.7559V64.6602H28.1133V68.7676C28.1133 68.9551 28.1348 69.1133 28.1777 69.2422C28.2246 69.3711 28.2891 69.4766 28.3711 69.5586C28.4531 69.6406 28.5488 69.6992 28.6582 69.7344C28.7715 69.7695 28.8965 69.7871 29.0332 69.7871C29.3809 69.7871 29.6543 69.7168 29.8535 69.5762C30.0566 69.4355 30.1992 69.2441 30.2812 69.002C30.3672 68.7559 30.4102 68.4824 30.4102 68.1816Z" fill="black"/>
<path d="M135.707 67.8977H137.459C137.424 68.4719 137.266 68.9817 136.984 69.427C136.707 69.8723 136.318 70.22 135.818 70.47C135.322 70.72 134.725 70.845 134.025 70.845C133.479 70.845 132.988 70.7512 132.555 70.5637C132.121 70.3723 131.75 70.0989 131.441 69.7434C131.137 69.3879 130.904 68.9583 130.744 68.4543C130.584 67.9504 130.504 67.386 130.504 66.761V66.1692C130.504 65.5442 130.586 64.9797 130.75 64.4758C130.918 63.968 131.156 63.5364 131.465 63.1809C131.777 62.8254 132.15 62.552 132.584 62.3606C133.018 62.1692 133.502 62.0735 134.037 62.0735C134.748 62.0735 135.348 62.2024 135.836 62.4602C136.328 62.718 136.709 63.0735 136.979 63.5266C137.252 63.9797 137.416 64.4954 137.471 65.0735H135.713C135.693 64.7297 135.625 64.4387 135.508 64.2004C135.391 63.9583 135.213 63.7766 134.975 63.6555C134.74 63.5305 134.428 63.468 134.037 63.468C133.744 63.468 133.488 63.5227 133.27 63.6321C133.051 63.7415 132.867 63.9075 132.719 64.1301C132.57 64.3528 132.459 64.634 132.385 64.9739C132.314 65.3098 132.279 65.7043 132.279 66.1575V66.761C132.279 67.2024 132.312 67.5911 132.379 67.927C132.445 68.259 132.547 68.5403 132.684 68.7708C132.824 68.9973 133.004 69.1692 133.223 69.2864C133.445 69.3997 133.713 69.4563 134.025 69.4563C134.393 69.4563 134.695 69.3977 134.934 69.2805C135.172 69.1633 135.354 68.9895 135.479 68.759C135.607 68.5286 135.684 68.2415 135.707 67.8977ZM141.232 70.7278H139.375L139.387 69.3567H141.232C141.693 69.3567 142.082 69.2532 142.398 69.0461C142.715 68.8352 142.953 68.5286 143.113 68.1262C143.277 67.7239 143.359 67.2375 143.359 66.6672V66.2512C143.359 65.8137 143.312 65.429 143.219 65.0969C143.129 64.7649 142.994 64.4856 142.814 64.259C142.635 64.0325 142.414 63.8625 142.152 63.7493C141.891 63.6321 141.59 63.5735 141.25 63.5735H139.34V62.1965H141.25C141.82 62.1965 142.342 62.2942 142.814 62.4895C143.291 62.6809 143.703 62.9563 144.051 63.3157C144.398 63.675 144.666 64.1047 144.854 64.6047C145.045 65.1008 145.141 65.6536 145.141 66.2629V66.6672C145.141 67.2727 145.045 67.8254 144.854 68.3254C144.666 68.8254 144.398 69.2551 144.051 69.6145C143.707 69.97 143.295 70.2454 142.814 70.4407C142.338 70.6321 141.811 70.7278 141.232 70.7278ZM140.371 62.1965V70.7278H138.613V62.1965H140.371ZM151.902 69.3567V70.7278H147.607V69.3567H151.902ZM148.176 62.1965V70.7278H146.418V62.1965H148.176ZM161.588 65.6711V67.0422H157.135V65.6711H161.588ZM157.656 62.1965V70.7278H155.898V62.1965H157.656ZM162.842 62.1965V70.7278H161.09V62.1965H162.842ZM166.047 64.3879V70.7278H164.354V64.3879H166.047ZM164.248 62.7356C164.248 62.4895 164.334 62.2864 164.506 62.1262C164.678 61.9661 164.908 61.886 165.197 61.886C165.482 61.886 165.711 61.9661 165.883 62.1262C166.059 62.2864 166.146 62.4895 166.146 62.7356C166.146 62.9817 166.059 63.1848 165.883 63.345C165.711 63.5051 165.482 63.5852 165.197 63.5852C164.908 63.5852 164.678 63.5051 164.506 63.345C164.334 63.1848 164.248 62.9817 164.248 62.7356ZM169.094 65.7415V70.7278H167.406V64.3879H168.988L169.094 65.7415ZM168.848 67.3352H168.391C168.391 66.8665 168.451 66.4446 168.572 66.0696C168.693 65.6907 168.863 65.3684 169.082 65.1028C169.301 64.8333 169.561 64.6282 169.861 64.4875C170.166 64.343 170.506 64.2708 170.881 64.2708C171.178 64.2708 171.449 64.3137 171.695 64.3997C171.941 64.4856 172.152 64.6223 172.328 64.8098C172.508 64.9973 172.645 65.2454 172.738 65.554C172.836 65.8625 172.885 66.2395 172.885 66.6848V70.7278H171.186V66.679C171.186 66.3977 171.146 66.179 171.068 66.0227C170.99 65.8665 170.875 65.7571 170.723 65.6946C170.574 65.6282 170.391 65.595 170.172 65.595C169.945 65.595 169.748 65.6399 169.58 65.7297C169.416 65.8196 169.279 65.9446 169.17 66.1047C169.064 66.261 168.984 66.4446 168.93 66.6555C168.875 66.8665 168.848 67.093 168.848 67.3352ZM177.273 64.3879V65.5833H173.582V64.3879H177.273ZM174.496 62.8235H176.184V68.8176C176.184 69.0012 176.207 69.1418 176.254 69.2395C176.305 69.3372 176.379 69.4055 176.477 69.4446C176.574 69.4797 176.697 69.4973 176.846 69.4973C176.951 69.4973 177.045 69.4934 177.127 69.4856C177.213 69.4739 177.285 69.4622 177.344 69.4504L177.35 70.6926C177.205 70.7395 177.049 70.7766 176.881 70.804C176.713 70.8313 176.527 70.845 176.324 70.845C175.953 70.845 175.629 70.7844 175.352 70.6633C175.078 70.5383 174.867 70.3391 174.719 70.0657C174.57 69.7922 174.496 69.4329 174.496 68.9875V62.8235Z" fill="black"/>
<path d="M262.707 67.8977H264.459C264.424 68.4719 264.266 68.9817 263.984 69.427C263.707 69.8723 263.318 70.22 262.818 70.47C262.322 70.72 261.725 70.845 261.025 70.845C260.479 70.845 259.988 70.7512 259.555 70.5637C259.121 70.3723 258.75 70.0989 258.441 69.7434C258.137 69.3879 257.904 68.9583 257.744 68.4543C257.584 67.9504 257.504 67.386 257.504 66.761V66.1692C257.504 65.5442 257.586 64.9797 257.75 64.4758C257.918 63.968 258.156 63.5364 258.465 63.1809C258.777 62.8254 259.15 62.552 259.584 62.3606C260.018 62.1692 260.502 62.0735 261.037 62.0735C261.748 62.0735 262.348 62.2024 262.836 62.4602C263.328 62.718 263.709 63.0735 263.979 63.5266C264.252 63.9797 264.416 64.4954 264.471 65.0735H262.713C262.693 64.7297 262.625 64.4387 262.508 64.2004C262.391 63.9583 262.213 63.7766 261.975 63.6555C261.74 63.5305 261.428 63.468 261.037 63.468C260.744 63.468 260.488 63.5227 260.27 63.6321C260.051 63.7415 259.867 63.9075 259.719 64.1301C259.57 64.3528 259.459 64.634 259.385 64.9739C259.314 65.3098 259.279 65.7043 259.279 66.1575V66.761C259.279 67.2024 259.312 67.5911 259.379 67.927C259.445 68.259 259.547 68.5403 259.684 68.7708C259.824 68.9973 260.004 69.1692 260.223 69.2864C260.445 69.3997 260.713 69.4563 261.025 69.4563C261.393 69.4563 261.695 69.3977 261.934 69.2805C262.172 69.1633 262.354 68.9895 262.479 68.759C262.607 68.5286 262.684 68.2415 262.707 67.8977ZM265.238 67.6223V67.4993C265.238 67.0344 265.305 66.6067 265.438 66.2161C265.57 65.8215 265.764 65.4797 266.018 65.1907C266.271 64.9016 266.584 64.677 266.955 64.5168C267.326 64.3528 267.752 64.2708 268.232 64.2708C268.713 64.2708 269.141 64.3528 269.516 64.5168C269.891 64.677 270.205 64.9016 270.459 65.1907C270.717 65.4797 270.912 65.8215 271.045 66.2161C271.178 66.6067 271.244 67.0344 271.244 67.4993V67.6223C271.244 68.0833 271.178 68.511 271.045 68.9055C270.912 69.2961 270.717 69.6379 270.459 69.9309C270.205 70.22 269.893 70.4446 269.521 70.6047C269.15 70.7649 268.725 70.845 268.244 70.845C267.764 70.845 267.336 70.7649 266.961 70.6047C266.59 70.4446 266.275 70.22 266.018 69.9309C265.764 69.6379 265.57 69.2961 265.438 68.9055C265.305 68.511 265.238 68.0833 265.238 67.6223ZM266.926 67.4993V67.6223C266.926 67.8879 266.949 68.136 266.996 68.3665C267.043 68.5969 267.117 68.8 267.219 68.9758C267.324 69.1477 267.461 69.2825 267.629 69.3801C267.797 69.4778 268.002 69.5266 268.244 69.5266C268.479 69.5266 268.68 69.4778 268.848 69.3801C269.016 69.2825 269.15 69.1477 269.252 68.9758C269.354 68.8 269.428 68.5969 269.475 68.3665C269.525 68.136 269.551 67.8879 269.551 67.6223V67.4993C269.551 67.2415 269.525 66.9993 269.475 66.7727C269.428 66.5422 269.352 66.3391 269.246 66.1633C269.145 65.9836 269.01 65.843 268.842 65.7415C268.674 65.6399 268.471 65.5891 268.232 65.5891C267.994 65.5891 267.791 65.6399 267.623 65.7415C267.459 65.843 267.324 65.9836 267.219 66.1633C267.117 66.3391 267.043 66.5422 266.996 66.7727C266.949 66.9993 266.926 67.2415 266.926 67.4993ZM273.969 65.7004V70.7278H272.275V64.3879H273.863L273.969 65.7004ZM273.734 67.3352H273.266C273.266 66.8938 273.318 66.4875 273.424 66.1165C273.533 65.7415 273.691 65.4172 273.898 65.1438C274.109 64.8665 274.369 64.6516 274.678 64.4993C274.986 64.3469 275.344 64.2708 275.75 64.2708C276.031 64.2708 276.289 64.3137 276.523 64.3997C276.758 64.4817 276.959 64.6125 277.127 64.7922C277.299 64.968 277.432 65.1985 277.525 65.4836C277.619 65.7649 277.666 66.1028 277.666 66.4973V70.7278H275.979V66.6848C275.979 66.3958 275.939 66.1731 275.861 66.0168C275.783 65.8606 275.672 65.7512 275.527 65.6887C275.387 65.6262 275.217 65.595 275.018 65.595C274.799 65.595 274.607 65.6399 274.443 65.7297C274.283 65.8196 274.15 65.9446 274.045 66.1047C273.939 66.261 273.861 66.4446 273.811 66.6555C273.76 66.8665 273.734 67.093 273.734 67.3352ZM277.508 67.1418L276.904 67.218C276.904 66.804 276.955 66.4192 277.057 66.0637C277.162 65.7083 277.316 65.3958 277.52 65.1262C277.727 64.8567 277.982 64.6477 278.287 64.4993C278.592 64.3469 278.943 64.2708 279.342 64.2708C279.646 64.2708 279.924 64.3157 280.174 64.4055C280.424 64.4915 280.637 64.6301 280.812 64.8215C280.992 65.009 281.129 65.2551 281.223 65.5598C281.32 65.8645 281.369 66.2375 281.369 66.679V70.7278H279.676V66.679C279.676 66.386 279.637 66.1633 279.559 66.011C279.484 65.8547 279.375 65.7473 279.23 65.6887C279.09 65.6262 278.922 65.595 278.727 65.595C278.523 65.595 278.346 65.636 278.193 65.718C278.041 65.7961 277.914 65.9055 277.812 66.0461C277.711 66.1868 277.635 66.3508 277.584 66.5383C277.533 66.7219 277.508 66.9231 277.508 67.1418ZM284.363 65.6067V73.1653H282.676V64.3879H284.24L284.363 65.6067ZM288.377 67.4875V67.6106C288.377 68.0715 288.322 68.4993 288.213 68.8938C288.107 69.2883 287.951 69.6321 287.744 69.925C287.537 70.2141 287.279 70.4407 286.971 70.6047C286.666 70.7649 286.314 70.845 285.916 70.845C285.529 70.845 285.193 70.7668 284.908 70.6106C284.623 70.4543 284.383 70.2356 284.188 69.9543C283.996 69.6692 283.842 69.3391 283.725 68.9641C283.607 68.5891 283.518 68.1868 283.455 67.7571V67.4348C283.518 66.9739 283.607 66.552 283.725 66.1692C283.842 65.7825 283.996 65.4485 284.188 65.1672C284.383 64.8821 284.621 64.6614 284.902 64.5051C285.188 64.3489 285.521 64.2708 285.904 64.2708C286.307 64.2708 286.66 64.3469 286.965 64.4993C287.273 64.6516 287.531 64.8704 287.738 65.1555C287.949 65.4407 288.107 65.7805 288.213 66.175C288.322 66.5696 288.377 67.0071 288.377 67.4875ZM286.684 67.6106V67.4875C286.684 67.218 286.66 66.97 286.613 66.7434C286.57 66.5129 286.5 66.3118 286.402 66.1399C286.309 65.968 286.184 65.8352 286.027 65.7415C285.875 65.6438 285.689 65.595 285.471 65.595C285.24 65.595 285.043 65.6321 284.879 65.7063C284.719 65.7805 284.588 65.8879 284.486 66.0286C284.385 66.1692 284.309 66.3372 284.258 66.5325C284.207 66.7278 284.176 66.9485 284.164 67.1946V68.009C284.184 68.2981 284.238 68.5579 284.328 68.7883C284.418 69.0149 284.557 69.1946 284.744 69.3274C284.932 69.4602 285.178 69.5266 285.482 69.5266C285.705 69.5266 285.893 69.4778 286.045 69.3801C286.197 69.2786 286.32 69.1399 286.414 68.9641C286.512 68.7883 286.58 68.5852 286.619 68.3547C286.662 68.1243 286.684 67.8762 286.684 67.6106ZM292.848 69.2981V66.4739C292.848 66.2708 292.814 66.0969 292.748 65.9524C292.682 65.804 292.578 65.6887 292.438 65.6067C292.301 65.5247 292.123 65.4836 291.904 65.4836C291.717 65.4836 291.555 65.5168 291.418 65.5833C291.281 65.6458 291.176 65.7375 291.102 65.8586C291.027 65.9758 290.99 66.1145 290.99 66.2747H289.303C289.303 66.0051 289.365 65.7493 289.49 65.5071C289.615 65.2649 289.797 65.052 290.035 64.8684C290.273 64.6809 290.557 64.5344 290.885 64.429C291.217 64.3235 291.588 64.2708 291.998 64.2708C292.49 64.2708 292.928 64.3528 293.311 64.5168C293.693 64.6809 293.994 64.927 294.213 65.2551C294.436 65.5833 294.547 65.9934 294.547 66.4856V69.1985C294.547 69.5461 294.568 69.8313 294.611 70.054C294.654 70.2727 294.717 70.4641 294.799 70.6282V70.7278H293.094C293.012 70.5559 292.949 70.3411 292.906 70.0833C292.867 69.8215 292.848 69.5598 292.848 69.2981ZM293.07 66.8665L293.082 67.8215H292.139C291.916 67.8215 291.723 67.8469 291.559 67.8977C291.395 67.9485 291.26 68.0208 291.154 68.1145C291.049 68.2043 290.971 68.3098 290.92 68.4309C290.873 68.552 290.85 68.6848 290.85 68.8293C290.85 68.9739 290.883 69.1047 290.949 69.2219C291.016 69.3352 291.111 69.425 291.236 69.4915C291.361 69.554 291.508 69.5852 291.676 69.5852C291.93 69.5852 292.15 69.5344 292.338 69.4329C292.525 69.3313 292.67 69.2063 292.771 69.0579C292.877 68.9094 292.932 68.7688 292.936 68.636L293.381 69.3508C293.318 69.511 293.232 69.677 293.123 69.8489C293.018 70.0208 292.883 70.1829 292.719 70.3352C292.555 70.4836 292.357 70.6067 292.127 70.7043C291.896 70.7981 291.623 70.845 291.307 70.845C290.904 70.845 290.539 70.7649 290.211 70.6047C289.887 70.4407 289.629 70.2161 289.438 69.9309C289.25 69.6418 289.156 69.3137 289.156 68.9465C289.156 68.6145 289.219 68.3196 289.344 68.0618C289.469 67.804 289.652 67.5872 289.895 67.4114C290.141 67.2317 290.447 67.0969 290.814 67.0071C291.182 66.9133 291.607 66.8665 292.092 66.8665H293.07ZM297.5 65.7415V70.7278H295.812V64.3879H297.395L297.5 65.7415ZM297.254 67.3352H296.797C296.797 66.8665 296.857 66.4446 296.979 66.0696C297.1 65.6907 297.27 65.3684 297.488 65.1028C297.707 64.8333 297.967 64.6282 298.268 64.4875C298.572 64.343 298.912 64.2708 299.287 64.2708C299.584 64.2708 299.855 64.3137 300.102 64.3997C300.348 64.4856 300.559 64.6223 300.734 64.8098C300.914 64.9973 301.051 65.2454 301.145 65.554C301.242 65.8625 301.291 66.2395 301.291 66.6848V70.7278H299.592V66.679C299.592 66.3977 299.553 66.179 299.475 66.0227C299.396 65.8665 299.281 65.7571 299.129 65.6946C298.98 65.6282 298.797 65.595 298.578 65.595C298.352 65.595 298.154 65.6399 297.986 65.7297C297.822 65.8196 297.686 65.9446 297.576 66.1047C297.471 66.261 297.391 66.4446 297.336 66.6555C297.281 66.8665 297.254 67.093 297.254 67.3352ZM304.455 70.0129L306.137 64.3879H307.947L305.398 71.6829C305.344 71.843 305.27 72.0149 305.176 72.1985C305.086 72.3821 304.963 72.5559 304.807 72.72C304.654 72.8879 304.461 73.0247 304.227 73.1301C303.996 73.2356 303.713 73.2883 303.377 73.2883C303.217 73.2883 303.086 73.2786 302.984 73.259C302.883 73.2395 302.762 73.2122 302.621 73.177V71.9407C302.664 71.9407 302.709 71.9407 302.756 71.9407C302.803 71.9446 302.848 71.9465 302.891 71.9465C303.113 71.9465 303.295 71.9211 303.436 71.8704C303.576 71.8196 303.689 71.7415 303.775 71.636C303.861 71.5344 303.93 71.4016 303.98 71.2375L304.455 70.0129ZM303.752 64.3879L305.129 68.9817L305.369 70.7688L304.221 70.8918L301.941 64.3879H303.752Z" fill="black"/>
<g clip-path="url(#clip0_8_34)">
<path d="M108.147 34.8397L116.249 34.8397L116.249 42.942" stroke="#1890FF" stroke-width="4" stroke-linecap="round" stroke-linejoin="round"/>
<path d="M65.2045 42.1318C66.0641 41.2722 66.547 40.1064 66.547 38.8909C66.547 37.6753 66.0641 36.5095 65.2045 35.65C64.345 34.7904 63.1792 34.3075 61.9636 34.3075C60.748 34.3075 59.5823 34.7904 58.7227 35.65C57.8632 36.5095 57.3803 37.6753 57.3803 38.8909C57.3803 40.1064 57.8632 41.2722 58.7227 42.1318C59.5823 42.9913 60.748 43.4742 61.9636 43.4742C63.1792 43.4742 64.345 42.9913 65.2045 42.1318V42.1318Z" stroke="#1890FF" stroke-width="4" stroke-linejoin="round"/>
<path d="M65.2045 35.65L71.6863 29.1682C72.5459 28.3086 73.7117 27.8257 74.9272 27.8257C76.1428 27.8257 77.3086 28.3086 78.1682 29.1681L96.8034 47.8034C97.6629 48.6629 98.8287 49.1458 100.044 49.1458C101.26 49.1458 102.426 48.6629 103.285 47.8034L116.249 34.8397" stroke="#1890FF" stroke-width="4" stroke-linecap="round" stroke-linejoin="round"/>
</g>
<g clip-path="url(#clip1_8_34)">
<path d="M199.179 42.942H191.077V34.8397" stroke="#1890FF" stroke-width="4" stroke-linecap="round" stroke-linejoin="round"/>
<path d="M242.121 35.65C241.262 36.5095 240.779 37.6753 240.779 38.8909C240.779 40.1064 241.262 41.2722 242.121 42.1318C242.981 42.9913 244.147 43.4742 245.362 43.4742C246.578 43.4742 247.744 42.9913 248.603 42.1318C249.463 41.2722 249.946 40.1064 249.946 38.8909C249.946 37.6753 249.463 36.5095 248.603 35.65C247.744 34.7904 246.578 34.3075 245.362 34.3075C244.147 34.3075 242.981 34.7904 242.121 35.65V35.65Z" stroke="#1890FF" stroke-width="4" stroke-linejoin="round"/>
<path d="M242.121 42.1318L235.64 48.6136C234.78 49.4731 233.614 49.956 232.399 49.956C231.183 49.956 230.017 49.4731 229.158 48.6136L210.523 29.9784C209.663 29.1188 208.497 28.636 207.282 28.636C206.066 28.636 204.9 29.1188 204.041 29.9784L191.077 42.942" stroke="#1890FF" stroke-width="4" stroke-linecap="round" stroke-linejoin="round"/>
</g>
<defs>
<clipPath id="clip0_8_34">
<rect width="55" height="55" fill="white" transform="translate(49 38.8909) rotate(-45)"/>
</clipPath>
<clipPath id="clip1_8_34">
<rect width="55" height="55" fill="white" transform="translate(258.326 38.8909) rotate(135)"/>
</clipPath>
</defs>
</svg>
